<?xml version='1.0' encoding='UTF-8' standalone='no'?>
<!-- Created with Fritzing (http://www.fritzing.org/) -->
<svg xmlns="http://www.w3.org/2000/svg" version="1.2" width="1.43701in" baseProfile="tiny" height="2.08661in" xmlns:svg="http://www.w3.org/2000/svg" x="0in"  y="0in" viewBox="0 0 103.465 150.236">
 <g partID="854254360">
  <g id="board" >
   <rect stroke="black" width="102.889" height="149.66" id="boardoutline" x="0.288"  stroke-width="0.5" y="0.288" fill="none" fill-opacity="0.5"/>
  </g>
 </g>
 <g partID="854379860">
  <g transform="translate(2.88,2.88)">
   <g id="groundplane" >
    <polygon stroke="none" points="0,0,0,27.072,6.624,27.072,6.624,27.216,7.632,27.216,7.632,27.36,8.064,27.36,8.064,27.504,8.352,27.504,8.352,27.648,8.64,27.648,8.64,27.792,8.928,27.792,8.928,27.936,9.216,27.936,9.216,28.08,9.36,28.08,9.36,28.224,23.472,28.224,23.472,6.768,23.328,6.768,23.328,6.48,23.184,6.48,23.184,6.192,23.04,6.192,23.04,6.048,22.896,6.048,22.896,5.616,22.752,5.616,22.752,5.184,22.608,5.184,22.608,4.752,22.464,4.752,22.464,3.456,22.608,3.456,22.608,2.88,22.752,2.88,22.752,2.448,22.896,2.448,22.896,2.16,23.04,2.16,23.04,1.872,23.184,1.872,23.184,1.584,23.328,1.584,23.328,1.44,23.472,1.44,23.472,0"  stroke-width="0" fill="black"/>
    <polygon stroke="none" points="0,27.072,0,30.96,1.44,30.96,1.44,30.672,1.584,30.672,1.584,30.384,1.728,30.384,1.728,30.24,1.872,30.24,1.872,29.952,2.016,29.952,2.016,29.808,2.16,29.808,2.16,29.664,2.304,29.664,2.304,29.376,2.448,29.376,2.448,29.232,2.592,29.232,2.592,29.088,2.736,29.088,2.736,28.944,2.88,28.944,2.88,28.8,3.024,28.8,3.024,28.656,3.168,28.656,3.168,28.512,3.456,28.512,3.456,28.368,3.6,28.368,3.6,28.224,3.744,28.224,3.744,28.08,4.032,28.08,4.032,27.936,4.176,27.936,4.176,27.792,4.464,27.792,4.464,27.648,4.752,27.648,4.752,27.504,5.184,27.504,5.184,27.36,5.616,27.36,5.616,27.216,6.48,27.216,6.48,27.072"  stroke-width="0" fill="black"/>
    <g id="connector0pad" >
     <circle stroke="none" r="2.7"  stroke-width="0" cx="5.241" fill="black" cy="5.5296"/>
    </g>
   </g>
  </g>
 </g>
 <g partID="854379870">
  <g transform="translate(34.704,2.88)">
   <g id="groundplane" >
    <polygon stroke="none" points="1.152,0,1.152,1.44,1.296,1.44,1.296,1.728,1.44,1.728,1.44,2.016,1.584,2.016,1.584,2.304,1.728,2.304,1.728,2.592,1.872,2.592,1.872,3.024,2.016,3.024,2.016,5.04,1.872,5.04,1.872,5.472,1.728,5.472,1.728,5.76,1.584,5.76,1.584,6.192,1.44,6.192,1.44,6.336,1.296,6.336,1.296,6.624,1.152,6.624,1.152,6.768,1.008,6.768,1.008,33.552,0.864,33.552,0.864,34.272,0.72,34.272,0.72,34.56,0.576,34.56,0.576,34.992,0.432,34.992,0.432,35.136,0.288,35.136,0.288,35.424,0.144,35.424,0.144,35.712,0,35.712,0,37.296,0.144,37.296,0.144,37.44,0.288,37.44,0.288,37.728,0.432,37.728,0.432,38.016,0.576,38.016,0.576,38.304,0.72,38.304,0.72,38.592,17.424,38.592,17.424,38.448,16.848,38.448,16.848,38.304,16.416,38.304,16.416,38.16,16.128,38.16,16.128,38.016,15.84,38.016,15.84,37.872,15.552,37.872,15.552,37.728,15.264,37.728,15.264,37.584,15.12,37.584,15.12,37.44,14.976,37.44,14.976,37.296,14.688,37.296,14.688,37.152,14.544,37.152,14.544,37.008,14.4,37.008,14.4,36.864,14.256,36.864,14.256,36.72,14.112,36.72,14.112,36.576,13.968,36.576,13.968,36.432,13.824,36.432,13.824,36.288,13.68,36.288,13.68,36.144,13.536,36.144,13.536,35.856,13.392,35.856,13.392,35.712,13.248,35.712,13.248,35.568,13.104,35.568,13.104,35.28,12.96,35.28,12.96,34.992,12.816,34.992,12.816,34.848,12.672,34.848,12.672,34.416,12.528,34.416,12.528,33.984,12.384,33.984,12.384,33.552,12.24,33.552,12.24,32.256,12.384,32.256,12.384,31.68,12.528,31.68,12.528,31.248,12.672,31.248,12.672,30.96,12.816,30.96,12.816,30.672,12.96,30.672,12.96,30.384,13.104,30.384,13.104,30.24,13.248,30.24,13.248,6.768,13.104,6.768,13.104,6.48,12.96,6.48,12.96,6.192,12.816,6.192,12.816,6.048,12.672,6.048,12.672,5.616,12.528,5.616,12.528,5.184,12.384,5.184,12.384,4.752,12.24,4.752,12.24,3.456,12.384,3.456,12.384,2.88,12.528,2.88,12.528,2.448,12.672,2.448,12.672,2.16,12.816,2.16,12.816,1.872,12.96,1.872,12.96,1.584,13.104,1.584,13.104,1.44,13.248,1.44,13.248,0"  stroke-width="0" fill="black"/>
    <polygon stroke="none" points="23.472,30.24,23.472,31.824,23.616,31.824,23.616,33.84,23.472,33.84,23.472,34.272,23.328,34.272,23.328,34.56,23.184,34.56,23.184,34.992,23.04,34.992,23.04,35.136,22.896,35.136,22.896,35.424,22.752,35.424,22.752,35.568,22.608,35.568,22.608,35.856,22.464,35.856,22.464,36,22.32,36,22.32,36.144,22.176,36.144,22.176,36.432,22.032,36.432,22.032,36.576,21.888,36.576,21.888,36.72,21.744,36.72,21.744,36.864,21.6,36.864,21.6,37.008,21.312,37.008,21.312,37.152,21.168,37.152,21.168,37.296,21.024,37.296,21.024,37.44,20.88,37.44,20.88,37.584,20.592,37.584,20.592,37.728,20.448,37.728,20.448,37.872,20.16,37.872,20.16,38.016,19.872,38.016,19.872,38.16,19.584,38.16,19.584,38.304,19.152,38.304,19.152,38.448,18.576,38.448,18.576,38.592,42.048,38.592,42.048,30.24"  stroke-width="0" fill="black"/>
    <polygon stroke="none" points="0.72,38.592,0.72,38.736,42.048,38.736,42.048,38.592"  stroke-width="0" fill="black"/>
    <polygon stroke="none" points="0.72,38.592,0.72,38.736,42.048,38.736,42.048,38.592"  stroke-width="0" fill="black"/>
    <polygon stroke="none" points="0.864,38.736,0.864,39.312,1.008,39.312,1.008,49.68,32.4,49.68,32.4,49.824,41.328,49.824,41.328,48.384,41.184,48.384,41.184,47.952,41.04,47.952,41.04,46.656,41.184,46.656,41.184,46.08,41.328,46.08,41.328,45.648,41.472,45.648,41.472,45.36,41.616,45.36,41.616,45.072,41.76,45.072,41.76,44.784,41.904,44.784,41.904,44.64,42.048,44.64,42.048,38.736"  stroke-width="0" fill="black"/>
    <polygon stroke="none" points="1.008,49.68,1.008,73.296,1.152,73.296,1.152,73.44,1.296,73.44,1.296,73.728,1.44,73.728,1.44,74.016,1.584,74.016,1.584,74.304,1.728,74.304,1.728,74.592,1.872,74.592,1.872,75.024,2.016,75.024,2.016,77.04,1.872,77.04,1.872,77.472,10.8,77.472,10.8,77.616,11.808,77.616,11.808,77.76,13.248,77.76,13.248,64.368,13.104,64.368,13.104,64.08,12.96,64.08,12.96,63.792,12.816,63.792,12.816,63.648,12.672,63.648,12.672,63.216,12.528,63.216,12.528,62.784,12.384,62.784,12.384,62.352,12.24,62.352,12.24,61.056,12.384,61.056,12.384,60.48,12.528,60.48,12.528,60.048,12.672,60.048,12.672,59.76,12.816,59.76,12.816,59.472,12.96,59.472,12.96,59.184,13.104,59.184,13.104,59.04,13.248,59.04,13.248,53.712,13.392,53.712,13.392,52.992,13.536,52.992,13.536,52.704,13.68,52.704,13.68,52.272,13.824,52.272,13.824,52.128,13.968,52.128,13.968,51.84,14.112,51.84,14.112,51.696,14.256,51.696,14.256,51.408,14.4,51.408,14.4,51.264,14.544,51.264,14.544,51.12,14.688,51.12,14.688,50.976,14.832,50.976,14.832,50.832,14.976,50.832,14.976,50.688,15.264,50.688,15.264,50.544,15.408,50.544,15.408,50.4,15.696,50.4,15.696,50.256,15.984,50.256,15.984,50.112,16.272,50.112,16.272,49.968,16.704,49.968,16.704,49.824,17.568,49.824,17.568,49.68"  stroke-width="0" fill="black"/>
    <polygon stroke="none" points="1.872,77.472,1.872,78.624,7.92,78.624,7.92,78.48,8.208,78.48,8.208,78.336,8.352,78.336,8.352,78.192,8.64,78.192,8.64,78.048,8.928,78.048,8.928,77.904,9.36,77.904,9.36,77.76,9.792,77.76,9.792,77.616,10.656,77.616,10.656,77.472"  stroke-width="0" fill="black"/>
    <g id="connector0pad" >
     <circle stroke="none" r="2.7"  stroke-width="0" cx="6.957" fill="black" cy="5.65457"/>
    </g>
   </g>
  </g>
 </g>
 <g partID="854379880">
  <g transform="translate(71.856,2.88)">
   <g id="groundplane" >
    <g id="connector0pad" >
     <polygon stroke="none" points="0,0,0,1.44,0.144,1.44,0.144,1.728,0.288,1.728,0.288,2.016,0.432,2.016,0.432,2.304,0.576,2.304,0.576,2.592,0.72,2.592,0.72,3.024,0.864,3.024,0.864,5.04,0.72,5.04,0.72,6.624,24.624,6.624,24.624,6.768,25.344,6.768,25.344,6.912,25.776,6.912,25.776,7.056,26.064,7.056,26.064,7.2,26.352,7.2,26.352,7.344,26.64,7.344,26.64,7.488,26.784,7.488,26.784,7.632,26.928,7.632,26.928,7.776,27.072,7.776,27.072,7.92,28.656,7.92,28.656,0"  stroke-width="0" fill="black"/>
    </g>
   </g>
  </g>
 </g>
 <g partID="854379890">
  <g transform="translate(2.88,47.664)">
   <g id="groundplane" >
    <polygon stroke="none" points="18.288,0,18.288,1.584,18.432,1.584,18.432,21.312,18.576,21.312,18.576,21.456,18.72,21.456,18.72,21.744,18.864,21.744,18.864,22.032,19.008,22.032,19.008,22.32,19.152,22.32,19.152,22.608,19.296,22.608,19.296,23.04,19.44,23.04,19.44,25.056,19.296,25.056,19.296,25.488,19.152,25.488,19.152,25.776,19.008,25.776,19.008,26.208,18.864,26.208,18.864,26.352,18.72,26.352,18.72,26.64,18.576,26.64,18.576,26.784,18.432,26.784,18.432,27.072,18.288,27.072,18.288,27.216,18.144,27.216,18.144,27.36,18,27.36,18,27.648,17.856,27.648,17.856,27.792,17.712,27.792,17.712,27.936,17.568,27.936,17.568,28.08,17.424,28.08,17.424,28.224,17.136,28.224,17.136,28.368,16.992,28.368,16.992,28.512,16.848,28.512,16.848,28.656,16.704,28.656,16.704,28.8,16.416,28.8,16.416,28.944,16.272,28.944,16.272,29.088,15.984,29.088,15.984,29.232,15.696,29.232,15.696,29.376,15.408,29.376,15.408,29.52,14.976,29.52,14.976,29.664,14.4,29.664,14.4,29.808,22.752,29.808,22.752,29.664,22.896,29.664,22.896,29.376,23.04,29.376,23.04,29.088,23.184,29.088,23.184,28.8,23.328,28.8,23.328,28.656,23.472,28.656,23.472,0"  stroke-width="0" fill="black"/>
    <polygon stroke="none" points="0,4.464,0,8.208,6.048,8.208,6.048,8.064,5.472,8.064,5.472,7.92,5.04,7.92,5.04,7.776,4.752,7.776,4.752,7.632,4.464,7.632,4.464,7.488,4.176,7.488,4.176,7.344,3.888,7.344,3.888,7.2,3.744,7.2,3.744,7.056,3.6,7.056,3.6,6.912,3.312,6.912,3.312,6.768,3.168,6.768,3.168,6.624,3.024,6.624,3.024,6.48,2.88,6.48,2.88,6.336,2.736,6.336,2.736,6.192,2.592,6.192,2.592,6.048,2.448,6.048,2.448,5.904,2.304,5.904,2.304,5.76,2.16,5.76,2.16,5.472,2.016,5.472,2.016,5.328,1.872,5.328,1.872,5.184,1.728,5.184,1.728,4.896,1.584,4.896,1.584,4.608,1.44,4.608,1.44,4.464"  stroke-width="0" fill="black"/>
    <polygon stroke="none" points="7.2,8.064,7.2,8.208,9.072,8.208,9.072,8.064"  stroke-width="0" fill="black"/>
    <polygon stroke="none" points="0,8.208,0,8.352,9.072,8.352,9.072,8.208"  stroke-width="0" fill="black"/>
    <polygon stroke="none" points="0,8.208,0,8.352,9.072,8.352,9.072,8.208"  stroke-width="0" fill="black"/>
    <polygon stroke="none" points="0,8.352,0,29.808,13.248,29.808,13.248,29.664,12.672,29.664,12.672,29.52,12.24,29.52,12.24,29.376,11.952,29.376,11.952,29.232,11.664,29.232,11.664,29.088,11.376,29.088,11.376,28.944,11.088,28.944,11.088,28.8,10.944,28.8,10.944,28.656,10.8,28.656,10.8,28.512,10.512,28.512,10.512,28.368,10.368,28.368,10.368,28.224,10.224,28.224,10.224,28.08,10.08,28.08,10.08,27.936,9.936,27.936,9.936,27.792,9.792,27.792,9.792,27.648,9.648,27.648,9.648,27.504,9.504,27.504,9.504,27.36,9.36,27.36,9.36,27.072,9.216,27.072,9.216,26.928,9.072,26.928,9.072,26.784,8.928,26.784,8.928,26.496,8.784,26.496,8.784,26.208,8.64,26.208,8.64,26.064,8.496,26.064,8.496,25.632,8.352,25.632,8.352,25.2,8.208,25.2,8.208,24.768,8.064,24.768,8.064,23.472,8.208,23.472,8.208,22.896,8.352,22.896,8.352,22.464,8.496,22.464,8.496,22.176,8.64,22.176,8.64,21.888,8.784,21.888,8.784,21.6,8.928,21.6,8.928,21.456,9.072,21.456,9.072,8.352"  stroke-width="0" fill="black"/>
    <polygon stroke="none" points="0,29.808,0,29.952,22.752,29.952,22.752,29.808"  stroke-width="0" fill="black"/>
    <polygon stroke="none" points="0,29.808,0,29.952,22.752,29.952,22.752,29.808"  stroke-width="0" fill="black"/>
    <polygon stroke="none" points="0,29.952,0,94.176,1.44,94.176,1.44,93.888,1.584,93.888,1.584,93.6,1.728,93.6,1.728,93.456,1.872,93.456,1.872,37.728,2.016,37.728,2.016,37.152,2.16,37.152,2.16,36.72,2.304,36.72,2.304,36.432,2.448,36.432,2.448,36.144,2.592,36.144,2.592,35.856,2.736,35.856,2.736,35.712,2.88,35.712,2.88,35.424,3.024,35.424,3.024,35.28,3.168,35.28,3.168,35.136,3.312,35.136,3.312,34.992,3.456,34.992,3.456,34.848,3.744,34.848,3.744,34.704,3.888,34.704,3.888,34.56,4.032,34.56,4.032,34.416,4.32,34.416,4.32,34.272,4.608,34.272,4.608,34.128,5.04,34.128,5.04,33.984,5.472,33.984,5.472,33.84,22.752,33.84,22.752,32.4,22.608,32.4,22.608,31.968,22.464,31.968,22.464,30.672,22.608,30.672,22.608,30.096,22.752,30.096,22.752,29.952"  stroke-width="0" fill="black"/>
    <g id="connector0pad" >
     <circle stroke="none" r="2.7"  stroke-width="0" cx="4.689" fill="black" cy="13.5742"/>
    </g>
   </g>
  </g>
 </g>
 <g partID="854379900">
  <g transform="translate(64.656,69.264)">
   <g id="groundplane" >
    <g id="connector0pad" >
     <polygon stroke="none" points="0,0,0,4.896,11.232,4.896,11.232,3.168,11.088,3.168,11.088,1.872,11.232,1.872,11.232,0"  stroke-width="0" fill="black"/>
    </g>
   </g>
  </g>
 </g>
 <g partID="854379910">
  <g transform="translate(86.112,76.32)">
   <g id="groundplane" >
    <g id="connector0pad" >
     <polygon stroke="none" points="3.168,0,3.168,0.144,0.864,0.144,0.864,1.584,1.008,1.584,1.008,3.6,0.864,3.6,0.864,4.032,0.72,4.032,0.72,4.32,0.576,4.32,0.576,4.752,0.432,4.752,0.432,4.896,0.288,4.896,0.288,5.184,0.144,5.184,0.144,5.328,0,5.328,0,7.056,0.144,7.056,0.144,7.2,0.288,7.2,0.288,7.488,0.432,7.488,0.432,7.776,0.576,7.776,0.576,8.064,0.72,8.064,0.72,8.352,0.864,8.352,0.864,8.784,1.008,8.784,1.008,10.8,0.864,10.8,0.864,12.384,5.04,12.384,5.04,0"  stroke-width="0" fill="black"/>
    </g>
   </g>
  </g>
 </g>
 <g partID="854379920">
  <g transform="translate(64.512,90.864)">
   <g id="groundplane" >
    <g id="connector0pad" >
     <polygon stroke="none" points="0.144,0,0.144,3.024,0,3.024,0,5.184,1.584,5.184,1.584,5.04,11.52,5.04,11.52,3.6,11.376,3.6,11.376,3.168,11.232,3.168,11.232,1.872,11.376,1.872,11.376,0"  stroke-width="0" fill="black"/>
    </g>
   </g>
  </g>
 </g>
 <g partID="854379930">
  <g transform="translate(21.312,98.064)">
   <g id="groundplane" >
    <g id="connector0pad" >
     <polygon stroke="none" points="0,0,0,42.912,0.144,42.912,0.144,43.056,0.288,43.056,0.288,43.344,0.432,43.344,0.432,43.632,0.576,43.632,0.576,43.92,0.72,43.92,0.72,44.208,0.864,44.208,0.864,44.64,1.008,44.64,1.008,46.656,0.864,46.656,0.864,47.088,0.72,47.088,0.72,47.376,0.576,47.376,0.576,47.808,0.432,47.808,0.432,49.248,4.752,49.248,4.752,47.808,4.608,47.808,4.608,47.664,4.464,47.664,4.464,47.232,4.32,47.232,4.32,46.8,4.176,46.8,4.176,46.368,4.032,46.368,4.032,45.072,4.176,45.072,4.176,44.496,4.32,44.496,4.32,44.064,4.464,44.064,4.464,43.776,4.608,43.776,4.608,43.488,4.752,43.488,4.752,43.2,4.896,43.2,4.896,43.056,5.04,43.056,5.04,5.184,4.896,5.184,4.896,4.896,4.752,4.896,4.752,4.608,4.608,4.608,4.608,4.464,4.464,4.464,4.464,4.032,4.32,4.032,4.32,3.6,4.176,3.6,4.176,3.168,4.032,3.168,4.032,1.872,4.176,1.872,4.176,0"  stroke-width="0" fill="black"/>
    </g>
   </g>
  </g>
 </g>
 <g partID="854379940">
  <g transform="translate(35.712,98.064)">
   <g id="groundplane" >
    <polygon stroke="none" points="0.864,0,0.864,1.44,1.008,1.44,1.008,3.456,0.864,3.456,0.864,3.888,9.792,3.888,9.792,4.032,10.8,4.032,10.8,4.176,11.232,4.176,11.232,4.32,11.52,4.32,11.52,4.464,11.808,4.464,11.808,4.608,12.096,4.608,12.096,4.752,12.384,4.752,12.384,4.896,12.528,4.896,12.528,5.04,14.544,5.04,14.544,4.896,18.576,4.896,18.576,3.168,18.432,3.168,18.432,1.872,18.576,1.872,18.576,0"  stroke-width="0" fill="black"/>
    <polygon stroke="none" points="0.72,3.888,0.72,4.176,0.576,4.176,0.576,4.608,0.432,4.608,0.432,4.752,0.288,4.752,0.288,5.04,0.144,5.04,0.144,5.184,0,5.184,0,15.408,9.216,15.408,9.216,15.264,8.64,15.264,8.64,15.12,8.208,15.12,8.208,14.976,7.92,14.976,7.92,14.832,7.632,14.832,7.632,14.688,7.344,14.688,7.344,14.544,7.056,14.544,7.056,14.4,6.912,14.4,6.912,14.256,6.768,14.256,6.768,14.112,6.48,14.112,6.48,13.968,6.336,13.968,6.336,13.824,6.192,13.824,6.192,13.68,6.048,13.68,6.048,13.536,5.904,13.536,5.904,13.392,5.76,13.392,5.76,13.248,5.616,13.248,5.616,13.104,5.472,13.104,5.472,12.96,5.328,12.96,5.328,12.672,5.184,12.672,5.184,12.528,5.04,12.528,5.04,12.384,4.896,12.384,4.896,12.096,4.752,12.096,4.752,11.808,4.608,11.808,4.608,11.664,4.464,11.664,4.464,11.232,4.32,11.232,4.32,10.8,4.176,10.8,4.176,10.368,4.032,10.368,4.032,9.072,4.176,9.072,4.176,8.496,4.32,8.496,4.32,8.064,4.464,8.064,4.464,7.776,4.608,7.776,4.608,7.488,4.752,7.488,4.752,7.2,4.896,7.2,4.896,7.056,5.04,7.056,5.04,6.768,5.184,6.768,5.184,6.624,5.328,6.624,5.328,6.48,5.472,6.48,5.472,6.192,5.616,6.192,5.616,6.048,5.76,6.048,5.76,5.904,5.904,5.904,5.904,5.76,6.048,5.76,6.048,5.616,6.192,5.616,6.192,5.472,6.336,5.472,6.336,5.328,6.624,5.328,6.624,5.184,6.768,5.184,6.768,5.04,6.912,5.04,6.912,4.896,7.2,4.896,7.2,4.752,7.344,4.752,7.344,4.608,7.632,4.608,7.632,4.464,7.92,4.464,7.92,4.32,8.352,4.32,8.352,4.176,8.784,4.176,8.784,4.032,9.648,4.032,9.648,3.888"  stroke-width="0" fill="black"/>
    <polygon stroke="none" points="36,7.2,36,10.224,35.856,10.224,35.856,10.944,35.712,10.944,35.712,11.376,35.568,11.376,35.568,11.664,35.424,11.664,35.424,11.952,35.28,11.952,35.28,12.096,35.136,12.096,35.136,12.384,34.992,12.384,34.992,12.528,34.848,12.528,34.848,12.672,34.704,12.672,34.704,12.816,34.56,12.816,34.56,12.96,34.416,12.96,34.416,13.104,34.272,13.104,34.272,13.248,34.128,13.248,34.128,13.392,33.84,13.392,33.84,13.536,33.696,13.536,33.696,13.68,33.408,13.68,33.408,13.824,33.12,13.824,33.12,13.968,32.688,13.968,32.688,14.112,32.112,14.112,32.112,14.256,14.832,14.256,14.832,14.4,12.384,14.4,12.384,14.544,12.24,14.544,12.24,14.688,11.952,14.688,11.952,14.832,11.664,14.832,11.664,14.976,11.376,14.976,11.376,15.12,10.944,15.12,10.944,15.264,10.368,15.264,10.368,15.408,41.04,15.408,41.04,12.384,40.896,12.384,40.896,12.096,40.752,12.096,40.752,11.808,40.608,11.808,40.608,11.664,40.464,11.664,40.464,11.232,40.32,11.232,40.32,10.8,40.176,10.8,40.176,10.368,40.032,10.368,40.032,9.072,40.176,9.072,40.176,7.2"  stroke-width="0" fill="black"/>
    <polygon stroke="none" points="0,15.408,0,15.552,41.04,15.552,41.04,15.408"  stroke-width="0" fill="black"/>
    <polygon stroke="none" points="0,15.408,0,15.552,41.04,15.552,41.04,15.408"  stroke-width="0" fill="black"/>
    <polygon stroke="none" points="0,15.552,0,25.488,24.192,25.488,24.192,25.632,25.2,25.632,25.2,25.776,25.632,25.776,25.632,25.92,25.92,25.92,25.92,26.064,26.208,26.064,26.208,26.208,26.496,26.208,26.496,26.352,26.784,26.352,26.784,26.496,26.928,26.496,26.928,26.64,41.04,26.64,41.04,15.552"  stroke-width="0" fill="black"/>
    <polygon stroke="none" points="0,25.488,0,42.912,0.144,42.912,0.144,43.056,0.288,43.056,0.288,43.344,0.432,43.344,0.432,43.632,0.576,43.632,0.576,43.92,0.72,43.92,0.72,44.208,0.864,44.208,0.864,44.64,1.008,44.64,1.008,46.656,0.864,46.656,0.864,47.088,0.72,47.088,0.72,47.376,0.576,47.376,0.576,47.808,0.432,47.808,0.432,49.248,4.752,49.248,4.752,47.808,4.608,47.808,4.608,47.664,4.464,47.664,4.464,47.232,4.32,47.232,4.32,46.8,4.176,46.8,4.176,46.368,4.032,46.368,4.032,45.072,4.176,45.072,4.176,44.496,4.32,44.496,4.32,44.064,4.464,44.064,4.464,43.776,4.608,43.776,4.608,43.488,4.752,43.488,4.752,43.2,4.896,43.2,4.896,43.056,5.04,43.056,5.04,30.528,5.184,30.528,5.184,29.952,5.328,29.952,5.328,29.52,5.472,29.52,5.472,29.232,5.616,29.232,5.616,28.944,5.76,28.944,5.76,28.656,5.904,28.656,5.904,28.512,6.048,28.512,6.048,28.368,6.192,28.368,6.192,28.08,6.336,28.08,6.336,27.936,6.48,27.936,6.48,27.792,6.768,27.792,6.768,27.648,6.912,27.648,6.912,27.504,7.056,27.504,7.056,27.36,7.344,27.36,7.344,27.216,7.632,27.216,7.632,27.072,7.92,27.072,7.92,26.928,8.208,26.928,8.208,26.784,8.784,26.784,8.784,26.64,21.312,26.64,21.312,26.496,21.6,26.496,21.6,26.352,21.744,26.352,21.744,26.208,22.032,26.208,22.032,26.064,22.32,26.064,22.32,25.92,22.752,25.92,22.752,25.776,23.184,25.776,23.184,25.632,24.048,25.632,24.048,25.488"  stroke-width="0" fill="black"/>
    <g id="connector0pad" >
     <circle stroke="none" r="2.7"  stroke-width="0" cx="5.6658" fill="black" cy="20.0295"/>
    </g>
   </g>
  </g>
 </g>
 <g partID="854379950">
  <g transform="translate(50.112,96.768)">
   <g id="groundplane" >
    <polygon stroke="none" points="48.96,0,48.96,0.144,48.816,0.144,48.816,0.288,48.672,0.288,48.672,0.432,48.384,0.432,48.384,0.576,48.24,0.576,48.24,0.72,47.952,0.72,47.952,0.864,47.664,0.864,47.664,1.008,47.232,1.008,47.232,1.152,46.656,1.152,46.656,1.296,36.864,1.296,36.864,2.736,37.008,2.736,37.008,4.752,36.864,4.752,36.864,5.184,36.72,5.184,36.72,5.472,36.576,5.472,36.576,5.904,36.432,5.904,36.432,6.048,36.288,6.048,36.288,6.336,36.144,6.336,36.144,6.48,36,6.48,36,8.208,36.144,8.208,36.144,8.352,36.288,8.352,36.288,8.64,36.432,8.64,36.432,8.928,36.576,8.928,36.576,9.216,36.72,9.216,36.72,9.504,36.864,9.504,36.864,9.936,37.008,9.936,37.008,11.952,36.864,11.952,36.864,12.384,36.72,12.384,36.72,12.672,36.576,12.672,36.576,13.104,36.432,13.104,36.432,13.248,36.288,13.248,36.288,13.536,36.144,13.536,36.144,13.68,36,13.68,36,33.264,35.856,33.264,35.856,33.84,35.712,33.84,35.712,34.272,35.568,34.272,35.568,34.704,35.424,34.704,35.424,34.848,35.28,34.848,35.28,35.136,35.136,35.136,35.136,35.424,34.992,35.424,34.992,35.568,34.848,35.568,34.848,35.712,34.704,35.712,34.704,35.856,34.56,35.856,34.56,36,34.416,36,34.416,36.144,34.272,36.144,34.272,36.288,34.128,36.288,34.128,36.432,33.84,36.432,33.84,36.576,33.696,36.576,33.696,36.72,33.408,36.72,33.408,36.864,32.976,36.864,32.976,37.008,32.688,37.008,32.688,37.152,31.968,37.152,31.968,37.296,12.384,37.296,12.384,37.44,12.24,37.44,12.24,37.584,11.952,37.584,11.952,37.728,11.664,37.728,11.664,37.872,11.376,37.872,11.376,38.016,10.944,38.016,10.944,38.16,10.368,38.16,10.368,38.304,50.4,38.304,50.4,0"  stroke-width="0" fill="black"/>
    <polygon stroke="none" points="0,37.296,0,38.304,9.216,38.304,9.216,38.16,8.64,38.16,8.64,38.016,8.208,38.016,8.208,37.872,7.92,37.872,7.92,37.728,7.632,37.728,7.632,37.584,7.344,37.584,7.344,37.44,7.056,37.44,7.056,37.296"  stroke-width="0" fill="black"/>
    <polygon stroke="none" points="0,38.304,0,38.448,50.4,38.448,50.4,38.304"  stroke-width="0" fill="black"/>
    <polygon stroke="none" points="0,38.304,0,38.448,50.4,38.448,50.4,38.304"  stroke-width="0" fill="black"/>
    <polygon stroke="none" points="0,38.448,0,44.208,0.144,44.208,0.144,44.352,0.288,44.352,0.288,44.64,0.432,44.64,0.432,44.928,0.576,44.928,0.576,45.216,0.72,45.216,0.72,45.504,0.864,45.504,0.864,45.936,1.008,45.936,1.008,47.952,0.864,47.952,0.864,48.384,0.72,48.384,0.72,48.672,0.576,48.672,0.576,49.104,0.432,49.104,0.432,50.544,50.4,50.544,50.4,38.448"  stroke-width="0" fill="black"/>
    <g id="connector0pad" >
     <circle stroke="none" r="2.7"  stroke-width="0" cx="40.4262" fill="black" cy="5.634"/>
    </g>
   </g>
  </g>
 </g>
 <g partID="854329790">
  <g transform="translate(41.0356,81.6988)">
   <g id="copper0" >
    <circle stroke="black" r="1.77165" id="connector0pin"  stroke-width="2.12599" fill="none" cx="4.43465" cy="4.43465"/>
   </g>
  </g>
 </g>
 <g partID="854329780">
  <g transform="translate(41.0356,103.299)">
   <g id="copper0" >
    <circle stroke="black" r="1.77165" id="connector0pin"  stroke-width="2.12599" fill="none" cx="4.43465" cy="4.43465"/>
   </g>
  </g>
 </g>
 <g partID="854329770">
  <g transform="translate(55.4356,124.899)">
   <g id="copper0" >
    <circle stroke="black" r="1.77165" id="connector0pin"  stroke-width="2.12599" fill="none" cx="4.43465" cy="4.43465"/>
   </g>
  </g>
 </g>
 <g partID="854329730">
  <g transform="translate(55.4356,96.0988)">
   <g id="copper0" >
    <circle stroke="black" r="1.77165" id="connector0pin"  stroke-width="2.12599" fill="none" cx="4.43465" cy="4.43465"/>
   </g>
  </g>
 </g>
 <g partID="854329720">
  <g transform="translate(48.2356,60.0988)">
   <g id="copper0" >
    <circle stroke="black" r="1.77165" id="connector0pin"  stroke-width="2.12599" fill="none" cx="4.43465" cy="4.43465"/>
   </g>
  </g>
 </g>
 <g partID="854329710">
  <g transform="translate(48.2356,31.2988)">
   <g id="copper0" >
    <circle stroke="black" r="1.77165" id="connector0pin"  stroke-width="2.12599" fill="none" cx="4.43465" cy="4.43465"/>
   </g>
  </g>
 </g>
 <g partID="854329360">
  <g transform="translate(5.0356,139.299)">
   <g id="copper0" >
    <circle stroke="black" r="1.77165" id="connector0pin"  stroke-width="2.12599" fill="none" cx="4.43465" cy="4.43465"/>
   </g>
  </g>
 </g>
 <g partID="854329350">
  <g transform="translate(12.2356,139.299)">
   <g id="copper0" >
    <circle stroke="black" r="1.77165" id="connector0pin"  stroke-width="2.12599" fill="none" cx="4.43465" cy="4.43465"/>
   </g>
  </g>
 </g>
 <g partID="854329340">
  <g transform="translate(41.0356,139.299)">
   <g id="copper0" >
    <circle stroke="black" r="1.77165" id="connector0pin"  stroke-width="2.12599" fill="none" cx="4.43465" cy="4.43465"/>
   </g>
  </g>
 </g>
 <g partID="854329330">
  <g transform="translate(26.6356,139.299)">
   <g id="copper0" >
    <circle stroke="black" r="1.77165" id="connector0pin"  stroke-width="2.12599" fill="none" cx="4.43465" cy="4.43465"/>
   </g>
  </g>
 </g>
 <g partID="854329250">
  <g transform="translate(26.6356,74.4988)">
   <g id="copper0" >
    <circle stroke="black" r="1.77165" id="connector0pin"  stroke-width="2.12599" fill="none" cx="4.43465" cy="4.43465"/>
   </g>
  </g>
 </g>
 <g partID="854329230">
  <g transform="translate(12.2356,67.2988)">
   <g id="copper0" >
    <circle stroke="black" r="1.77165" id="connector0pin"  stroke-width="2.12599" fill="none" cx="4.43465" cy="4.43465"/>
   </g>
  </g>
 </g>
 <g partID="854329190">
  <g transform="translate(77.0356,96.0988)">
   <g id="copper0" >
    <circle stroke="black" r="1.77165" id="connector0pin"  stroke-width="2.12599" fill="none" cx="4.43465" cy="4.43465"/>
   </g>
  </g>
 </g>
 <g partID="854329180">
  <g transform="translate(77.0356,88.8988)">
   <g id="copper0" >
    <circle stroke="black" r="1.77165" id="connector0pin"  stroke-width="2.12599" fill="none" cx="4.43465" cy="4.43465"/>
   </g>
  </g>
 </g>
 <g partID="854329170">
  <g transform="translate(77.0356,103.299)">
   <g id="copper0" >
    <circle stroke="black" r="1.77165" id="connector0pin"  stroke-width="2.12599" fill="none" cx="4.43465" cy="4.43465"/>
   </g>
  </g>
 </g>
 <g partID="854329130">
  <g transform="translate(77.0356,74.4988)">
   <g id="copper0" >
    <circle stroke="black" r="1.77165" id="connector0pin"  stroke-width="2.12599" fill="none" cx="4.43465" cy="4.43465"/>
   </g>
  </g>
 </g>
 <g partID="854329120">
  <g transform="translate(77.0356,67.2988)">
   <g id="copper0" >
    <circle stroke="black" r="1.77165" id="connector0pin"  stroke-width="2.12599" fill="none" cx="4.43465" cy="4.43465"/>
   </g>
  </g>
 </g>
 <g partID="854329110">
  <g transform="translate(77.0356,81.6988)">
   <g id="copper0" >
    <circle stroke="black" r="1.77165" id="connector0pin"  stroke-width="2.12599" fill="none" cx="4.43465" cy="4.43465"/>
   </g>
  </g>
 </g>
 <g partID="854328670">
  <g transform="translate(77.0356,45.6988)">
   <g id="copper0" >
    <circle stroke="black" r="1.77165" id="connector0pin"  stroke-width="2.12599" fill="none" cx="4.43465" cy="4.43465"/>
   </g>
  </g>
 </g>
 <g partID="854328660">
  <g transform="translate(77.0356,52.8988)">
   <g id="copper0" >
    <circle stroke="black" r="1.77165" id="connector0pin"  stroke-width="2.12599" fill="none" cx="4.43465" cy="4.43465"/>
   </g>
  </g>
 </g>
 <g partID="854328650">
  <g transform="translate(77.0356,60.0988)">
   <g id="copper0" >
    <circle stroke="black" r="1.77165" id="connector0pin"  stroke-width="2.12599" fill="none" cx="4.43465" cy="4.43465"/>
   </g>
  </g>
 </g>
 <g partID="854328630">
  <g transform="translate(5.0356,45.6988)">
   <g id="copper0" >
    <circle stroke="black" r="1.77165" id="connector0pin"  stroke-width="2.12599" fill="none" cx="4.43465" cy="4.43465"/>
   </g>
  </g>
 </g>
 <g partID="854328610">
  <g transform="translate(5.0356,38.4988)">
   <g id="copper0" >
    <circle stroke="black" r="1.77165" id="connector0pin"  stroke-width="2.12599" fill="none" cx="4.43465" cy="4.43465"/>
   </g>
  </g>
 </g>
 <g partID="854328590">
  <g transform="translate(5.0356,31.2988)">
   <g id="copper0" >
    <circle stroke="black" r="1.77165" id="connector0pin"  stroke-width="2.12599" fill="none" cx="4.43465" cy="4.43465"/>
   </g>
  </g>
 </g>
 <g partID="854327740">
  <g transform="translate(26.6356,96.0988)">
   <g id="copper0" >
    <circle stroke="black" r="1.77165" id="connector0pin"  stroke-width="2.12599" fill="none" cx="4.43465" cy="4.43465"/>
   </g>
  </g>
 </g>
 <g partID="854327720">
  <g transform="translate(12.2356,88.8988)">
   <g id="copper0" >
    <circle stroke="black" r="1.77165" id="connector0pin"  stroke-width="2.12599" fill="none" cx="4.43465" cy="4.43465"/>
   </g>
  </g>
 </g>
 <g partID="854327540">
  <g transform="translate(62.6358,2.4988)">
   <g id="copper0" >
    <circle stroke="black" r="1.77165" id="connector0pin"  stroke-width="2.12599" fill="none" cx="4.43465" cy="4.43465"/>
   </g>
  </g>
 </g>
 <g partID="854327520">
  <g transform="translate(55.4358,2.4988)">
   <g id="copper0" >
    <circle stroke="black" r="1.77165" id="connector0pin"  stroke-width="2.12599" fill="none" cx="4.43465" cy="4.43465"/>
   </g>
  </g>
 </g>
 <g partID="854327500">
  <g transform="translate(48.2358,2.4988)">
   <g id="copper0" >
    <circle stroke="black" r="1.77165" id="connector0pin"  stroke-width="2.12599" fill="none" cx="4.43465" cy="4.43465"/>
   </g>
  </g>
 </g>
 <g partID="854317360">
  <g transform="translate(26.6356,2.49879)">
   <g id="copper0" >
    <circle stroke="black" r="1.77165" id="connector0pin"  stroke-width="2.12599" fill="none" cx="4.43465" cy="4.43465"/>
   </g>
  </g>
 </g>
 <g partID="854329830">
  <line x1="16.6702" x2="16.6702" stroke-linecap="round" stroke="black" stroke-width="3.6" y1="96.0421" y2="141.025"/>
 </g>
 <g partID="854324600">
  <line x1="9.46934" x2="9.45094" stroke-linecap="round" stroke="black" stroke-width="3.6" y1="141.025" y2="86.1206"/>
 </g>
 <g partID="854378480">
  <line x1="52.6929" x2="52.6733" stroke-linecap="round" stroke="black" stroke-width="3.6" y1="28.4845" y2="9.64211"/>
 </g>
 <g partID="854330750">
  <line x1="52.6787" x2="52.6929" stroke-linecap="round" stroke="black" stroke-width="3.6" y1="33.0248" y2="28.4845"/>
 </g>
 <g partID="854378510">
  <line x1="81.4187" x2="52.6929" stroke-linecap="round" stroke="black" stroke-width="3.6" y1="28.4845" y2="28.4845"/>
 </g>
 <g partID="854324780">
  <line x1="81.4638" x2="81.4187" stroke-linecap="round" stroke="black" stroke-width="3.6" y1="47.4248" y2="28.4845"/>
 </g>
 <g partID="854378290">
  <line x1="31.0167" x2="31.0662" stroke-linecap="round" stroke="black" stroke-width="3.6" y1="42.9334" y2="76.2248"/>
 </g>
 <g partID="854377680">
  <line x1="12.1789" x2="31.0167" stroke-linecap="round" stroke="black" stroke-width="3.6" y1="42.9334" y2="42.9334"/>
 </g>
 <g partID="854285940">
  <line x1="16.6541" x2="16.6682" stroke-linecap="round" stroke="black" stroke-width="3.6" y1="50.1113" y2="69.0248"/>
 </g>
 <g partID="854285670">
  <line x1="12.1789" x2="16.6541" stroke-linecap="round" stroke="black" stroke-width="3.6" y1="50.1251" y2="50.1113"/>
 </g>
 <g partID="854321120">
  <line x1="31.0702" x2="31.0702" stroke-linecap="round" stroke="black" stroke-width="3.6" y1="141.025" y2="103.242"/>
 </g>
 <g partID="854322370">
  <line x1="31.0099" x2="31.0646" stroke-linecap="round" stroke="black" stroke-width="3.6" y1="35.7556" y2="9.6421"/>
 </g>
 <g partID="854322430">
  <line x1="31.0099" x2="12.1789" stroke-linecap="round" stroke="black" stroke-width="3.6" y1="35.7556" y2="35.7362"/>
 </g>
 <g partID="854322550">
  <line x1="59.9082" x2="19.3789" stroke-linecap="round" stroke="black" stroke-width="3.6" y1="93.3501" y2="93.3345"/>
 </g>
 <g partID="854376930">
  <line x1="59.9372" x2="59.9201" stroke-linecap="round" stroke="black" stroke-width="3.6" y1="86.1585" y2="64.5655"/>
 </g>
 <g partID="854376870">
  <line x1="59.9082" x2="59.9372" stroke-linecap="round" stroke="black" stroke-width="3.6" y1="93.3501" y2="86.1585"/>
 </g>
 <g partID="854376810">
  <line x1="59.9201" x2="78.7616" stroke-linecap="round" stroke="black" stroke-width="3.6" y1="64.5655" y2="64.5375"/>
 </g>
 <g partID="854378720">
  <line x1="52.6131" x2="52.6631" stroke-linecap="round" stroke="black" stroke-width="3.6" y1="86.1106" y2="67.2421"/>
 </g>
 <g partID="854376900">
  <line x1="48.1789" x2="52.6131" stroke-linecap="round" stroke="black" stroke-width="3.6" y1="86.1248" y2="86.1106"/>
 </g>
 <g partID="854376750">
  <line x1="52.6622" x2="52.6488" stroke-linecap="round" stroke="black" stroke-width="3.6" y1="61.8248" y2="57.2942"/>
 </g>
 <g partID="854376780">
  <line x1="52.6488" x2="78.7616" stroke-linecap="round" stroke="black" stroke-width="3.6" y1="57.2942" y2="57.3298"/>
 </g>
 <g partID="854377140">
  <line x1="88.7539" x2="84.1789" stroke-linecap="round" stroke="black" stroke-width="3.6" y1="71.7502" y2="71.7397"/>
 </g>
 <g partID="854377080">
  <line x1="88.6432" x2="88.7539" stroke-linecap="round" stroke="black" stroke-width="3.6" y1="21.2601" y2="71.7502"/>
 </g>
 <g partID="854377020">
  <line x1="59.8829" x2="59.9372" stroke-linecap="round" stroke="black" stroke-width="3.6" y1="9.64208" y2="21.443"/>
 </g>
 <g partID="854377050">
  <line x1="59.9372" x2="88.6432" stroke-linecap="round" stroke="black" stroke-width="3.6" y1="21.443" y2="21.2601"/>
 </g>
 <g partID="854377260">
  <line x1="95.8921" x2="95.8676" stroke-linecap="round" stroke="black" stroke-width="3.6" y1="93.4069" y2="14.2077"/>
 </g>
 <g partID="854377230">
  <line x1="95.8676" x2="67.0193" stroke-linecap="round" stroke="black" stroke-width="3.6" y1="14.2077" y2="14.1167"/>
 </g>
 <g partID="854377200">
  <line x1="67.0193" x2="67.0512" stroke-linecap="round" stroke="black" stroke-width="3.6" y1="14.1167" y2="9.64204"/>
 </g>
 <g partID="854377390">
  <line x1="59.9372" x2="78.7616" stroke-linecap="round" stroke="black" stroke-width="3.6" y1="78.8323" y2="78.9207"/>
 </g>
 <g partID="854377360">
  <line x1="59.9372" x2="59.9372" stroke-linecap="round" stroke="black" stroke-width="3.6" y1="86.1585" y2="78.8323"/>
 </g>
 <g partID="854377530">
  <line x1="59.9372" x2="78.7616" stroke-linecap="round" stroke="black" stroke-width="3.6" y1="86.1585" y2="86.1366"/>
 </g>
 <g partID="854378200">
  <line x1="67.0096" x2="67.0096" stroke-linecap="round" stroke="black" stroke-width="3.6" y1="100.558" y2="107.648"/>
 </g>
 <g partID="854378170">
  <line x1="67.0096" x2="48.1789" stroke-linecap="round" stroke="black" stroke-width="3.6" y1="107.648" y2="107.723"/>
 </g>
 <g partID="854378140">
  <line x1="78.7616" x2="67.0096" stroke-linecap="round" stroke="black" stroke-width="3.6" y1="100.538" y2="100.558"/>
 </g>
 <g partID="854378420">
  <line x1="95.8921" x2="84.1789" stroke-linecap="round" stroke="black" stroke-width="3.6" y1="93.4069" y2="93.3472"/>
 </g>
 <g partID="854378650">
  <line x1="9.45094" x2="42.7616" stroke-linecap="round" stroke="black" stroke-width="3.6" y1="86.1206" y2="86.1325"/>
 </g>
 <g partID="854378880">
  <line x1="59.9082" x2="59.8846" stroke-linecap="round" stroke="black" stroke-width="3.6" y1="93.3501" y2="97.8248"/>
 </g>
 <g partID="854378990">
  <line x1="45.4288" x2="45.4624" stroke-linecap="round" stroke="black" stroke-width="3.6" y1="129.366" y2="141.025"/>
 </g>
 <g partID="854378960">
  <line x1="57.1616" x2="45.4288" stroke-linecap="round" stroke="black" stroke-width="3.6" y1="129.34" y2="129.366"/>
 </g>
 <g partID="854379020">
  <line x1="62.5789" x2="81.4027" stroke-linecap="round" stroke="black" stroke-width="3.6" y1="129.338" y2="129.366"/>
 </g>
 <g partID="854379050">
  <line x1="81.4027" x2="81.4618" stroke-linecap="round" stroke="black" stroke-width="3.6" y1="129.366" y2="110.442"/>
 </g>
</svg>
